<?xml version="1.0" standalone="no"?>
<!DOCTYPE svg PUBLIC "-//W3C//DTD SVG 20010904//EN"
 "http://www.w3.org/TR/2001/REC-SVG-20010904/DTD/svg10.dtd">
<svg version="1.0" xmlns="http://www.w3.org/2000/svg"
 width="976.000000pt" height="976.000000pt" viewBox="0 0 976.000000 976.000000"
 preserveAspectRatio="xMidYMid meet">
<metadata>
Created by potrace 1.11, written by Peter Selinger 2001-2013
</metadata>
<g transform="translate(0.000000,976.000000) scale(0.100000,-0.100000)"
fill="#000000" stroke="none">
<path d="M3865 9701 c-25 -10 -62 -78 -60 -109 1 -12 -2 -22 -5 -22 -4 0 -7
-8 -7 -17 2 -58 -39 -133 -84 -155 -36 -18 -122 -25 -174 -14 -55 12 -170 44
-200 57 -16 7 -34 13 -40 15 -5 2 -73 28 -150 58 -183 72 -376 129 -478 142
-22 2 -43 6 -46 8 -6 4 -197 19 -216 17 -5 0 -44 -2 -85 -5 -41 -2 -97 -6
-125 -10 -27 -4 -63 -8 -80 -11 -238 -30 -493 -128 -700 -268 -131 -88 -314
-258 -390 -362 -17 -22 -32 -42 -36 -45 -17 -15 -95 -141 -138 -222 -74 -141
-143 -341 -165 -478 -3 -19 -8 -46 -11 -59 -14 -70 -19 -154 -19 -331 0 -240
10 -327 56 -485 11 -38 21 -74 22 -80 2 -5 10 -27 19 -49 9 -21 17 -41 17 -43
0 -10 79 -164 99 -192 12 -16 21 -34 21 -40 0 -6 5 -11 10 -11 6 0 10 -7 10
-15 0 -8 5 -15 10 -15 6 0 10 -6 10 -14 0 -8 3 -16 8 -18 4 -1 24 -24 45 -50
61 -76 186 -200 282 -279 91 -76 270 -209 280 -209 3 0 27 -15 53 -33 54 -39
224 -142 303 -185 30 -16 74 -41 99 -54 25 -14 122 -65 215 -113 94 -48 194
-101 223 -116 144 -79 171 -94 220 -125 29 -19 56 -34 61 -34 5 0 11 -3 13 -7
2 -5 49 -39 106 -76 56 -38 139 -98 185 -134 96 -77 287 -269 287 -289 0 -8 4
-14 9 -14 13 0 112 -161 146 -235 51 -113 94 -264 113 -400 3 -27 7 -125 7
-216 l0 -167 160 -89 c88 -50 218 -118 289 -152 l130 -63 17 24 c10 13 34 54
53 91 20 38 39 74 43 80 12 18 113 291 112 302 0 3 2 18 5 33 14 64 17 78 20
97 2 11 6 34 9 50 21 109 30 401 15 489 -38 230 -48 275 -59 282 -5 3 -9 13
-9 23 0 10 -12 46 -26 82 -38 92 -42 103 -40 110 0 4 -6 15 -14 25 -9 11 -26
39 -40 64 -28 54 -113 181 -134 203 -9 9 -16 20 -16 26 0 11 -265 280 -320
324 -79 64 -299 225 -350 257 -30 19 -57 37 -60 40 -17 19 -310 188 -430 247
-41 21 -77 41 -80 44 -3 3 -33 18 -67 34 -35 16 -63 32 -63 37 0 4 -3 7 -7 6
-11 -3 -243 115 -376 191 -20 11 -54 31 -75 42 -104 59 -138 80 -267 165 -138
91 -252 191 -332 289 -45 56 -124 175 -127 190 -1 6 -10 24 -19 42 -19 35 -58
130 -62 153 -2 8 -4 15 -5 15 -1 0 -3 8 -5 17 -2 9 -10 45 -18 80 -24 98 -31
171 -31 333 0 133 7 229 19 275 2 8 7 30 10 49 5 31 35 129 54 176 84 215 249
399 451 503 219 112 526 139 800 68 72 -19 72 -19 185 -70 44 -20 88 -43 98
-51 9 -8 21 -15 25 -15 5 0 46 -27 91 -60 114 -84 315 -286 355 -359 5 -9 12
-18 15 -21 31 -26 187 -319 196 -368 2 -12 7 -26 10 -32 8 -13 52 -161 59
-197 45 -247 93 -321 195 -298 36 8 56 50 53 114 -3 74 -10 176 -12 176 -1 0
-3 14 -5 30 -2 17 -6 48 -8 70 -7 58 -19 201 -22 265 -4 78 -4 502 0 580 5
100 15 213 21 240 13 59 11 186 -2 212 -23 45 -76 60 -129 39z"/>
<path d="M3961 6699 c-72 -10 -113 -48 -100 -95 15 -54 76 -69 305 -80 221
-10 302 -23 382 -59 44 -20 56 -32 73 -69 50 -113 51 -150 51 -1498 l1 -1210
21 -8 c11 -4 32 -12 46 -18 14 -5 28 -10 32 -11 4 -1 27 -9 50 -17 36 -13 179
-59 213 -68 6 -2 17 -6 25 -9 18 -7 212 -66 237 -72 10 -3 81 -23 158 -44 77
-22 142 -38 144 -35 3 3 4 31 3 63 l-2 58 57 -2 c76 -3 242 -16 263 -20 8 -2
43 -6 75 -10 33 -4 69 -9 80 -11 11 -2 33 -7 48 -9 204 -38 383 -107 526 -204
55 -37 66 -41 104 -36 23 3 62 8 87 11 112 12 224 70 224 114 0 20 -9 28 -59
47 -108 43 -242 86 -335 109 -104 25 -193 45 -230 50 -25 3 -48 8 -51 10 -3 1
-28 6 -55 10 -53 7 -74 18 -74 40 0 8 6 15 13 15 6 1 21 3 32 5 11 2 34 5 50
8 51 8 158 19 197 20 21 1 38 4 38 7 0 3 6 6 13 7 11 1 34 4 119 16 160 24
477 120 613 185 22 11 60 29 85 40 25 11 83 42 129 70 46 28 88 51 92 51 4 0
12 6 16 13 4 6 15 17 24 22 82 51 349 299 349 325 0 5 6 15 13 22 38 38 124
182 160 268 45 107 82 238 91 320 2 25 5 45 7 45 6 0 10 242 5 310 -9 109 -42
285 -65 340 -5 11 -24 56 -42 100 -18 44 -37 82 -41 83 -4 2 -8 8 -8 13 0 27
-144 218 -211 279 -107 98 -183 160 -198 160 -6 0 -11 5 -11 10 0 6 -6 10 -14
10 -8 0 -16 4 -18 9 -3 9 -140 87 -198 113 -19 9 -55 25 -80 36 -65 29 -279
97 -335 106 -16 3 -41 8 -55 11 -27 7 -41 9 -110 19 -25 4 -58 9 -74 12 -15 4
-47 8 -70 9 -289 24 -405 24 -816 -1 -302 -17 -615 -21 -995 -10 -143 3 -348
9 -455 12 -268 7 -419 12 -460 17 -19 2 -59 0 -89 -4z m2419 -203 c19 -3 46
-8 60 -11 14 -4 36 -8 50 -11 27 -5 85 -22 110 -31 8 -3 22 -7 30 -9 25 -5
140 -63 194 -98 181 -118 307 -290 387 -529 17 -50 33 -100 35 -111 5 -29 18
-89 20 -98 1 -5 2 -9 4 -10 2 -3 5 -25 14 -108 3 -30 8 -77 12 -105 6 -55 6
-362 0 -410 -2 -16 -7 -57 -10 -91 -8 -75 -39 -224 -65 -307 -83 -264 -228
-458 -446 -594 -66 -41 -219 -107 -310 -134 -113 -33 -131 -37 -170 -43 -16
-2 -31 -5 -32 -6 -5 -4 -41 -10 -158 -25 -11 -2 -38 -6 -60 -9 -116 -16 -419
-26 -438 -14 -7 4 -9 8 -5 8 4 0 3 12 -1 28 -5 15 -4 37 0 50 5 13 4 22 -1 22
-6 0 -6 9 0 25 6 16 6 25 0 25 -6 0 -6 9 0 25 5 13 6 27 1 29 -4 3 -5 26 -1
50 4 25 3 51 -1 58 -4 6 -4 19 1 27 5 9 4 23 -1 33 -6 10 -5 19 1 23 6 4 7 11
4 17 -8 12 -7 188 0 196 3 2 1 12 -4 21 -5 10 -5 23 0 31 5 8 5 21 -1 31 -6
12 -5 20 1 24 6 4 7 11 4 17 -8 13 -7 175 1 188 4 6 1 10 -5 10 -7 0 -8 6 -2
18 5 9 6 26 2 37 -4 11 -4 29 -1 40 4 11 6 31 4 45 -6 49 -6 130 0 136 3 3 2
17 -3 30 -6 14 -6 24 -1 24 5 0 6 12 2 27 -4 14 -4 48 -1 75 4 26 2 48 -2 48
-5 0 -5 8 1 17 5 10 5 26 1 39 -5 12 -7 24 -4 27 9 8 10 77 2 77 -5 0 -5 8 0
18 5 9 6 26 2 37 -4 11 -4 29 -1 40 4 11 6 31 4 45 -6 49 -6 130 0 136 3 3 2
17 -3 30 -6 14 -6 24 -1 24 5 0 6 12 2 27 -4 14 -4 48 -1 75 4 26 2 48 -2 48
-5 0 -5 8 1 17 5 10 5 26 1 39 -5 12 -7 24 -4 27 9 8 10 77 2 77 -5 0 -5 8 1
17 5 10 5 26 1 39 -5 12 -6 24 -3 27 3 3 6 45 8 94 3 128 26 201 82 261 30 32
95 68 137 76 14 2 29 7 34 10 5 3 33 8 63 11 29 4 56 9 58 11 7 6 356 -3 401
-10z"/>
<path d="M5747 4962 c-1 -4 -3 -33 -2 -65 l0 -58 100 -52 c141 -74 284 -159
395 -235 97 -66 247 -178 265 -198 6 -5 39 -35 74 -65 36 -30 91 -80 123 -111
32 -32 64 -58 72 -58 17 0 153 131 179 173 19 29 15 47 -8 47 -7 0 -15 3 -17
8 -4 9 -75 62 -83 62 -3 0 -21 11 -38 24 -42 32 -303 177 -442 246 -60 30
-111 58 -113 62 -2 5 -9 8 -16 8 -7 0 -54 20 -105 45 -50 25 -94 45 -97 45 -3
0 -33 13 -67 29 -34 16 -84 39 -112 51 -27 12 -62 28 -77 35 -15 7 -29 10 -31
7z"/>
<path d="M2742 5484 c-23 -12 -45 -23 -48 -22 -3 0 -46 -24 -97 -53 -64 -37
-115 -77 -169 -132 -43 -44 -78 -84 -78 -88 0 -4 -11 -25 -25 -45 -14 -20 -22
-40 -19 -45 3 -5 1 -9 -5 -9 -9 0 -44 -101 -56 -165 -19 -95 -11 -255 20 -380
23 -95 90 -250 151 -346 38 -62 97 -151 110 -169 112 -144 325 -371 414 -439
19 -14 52 -43 75 -63 22 -21 43 -38 47 -38 4 0 13 -6 20 -13 7 -7 31 -26 53
-42 22 -17 44 -34 50 -38 144 -112 462 -318 622 -403 37 -20 73 -39 78 -44 6
-5 13 -9 17 -9 4 -1 61 -26 125 -57 65 -30 141 -66 168 -79 28 -13 68 -31 90
-40 22 -10 68 -30 103 -46 35 -16 67 -29 73 -29 5 0 17 -4 27 -9 15 -9 49 -22
62 -26 3 0 50 -16 105 -35 55 -19 102 -35 105 -35 3 -1 12 -4 20 -8 26 -10
114 -35 150 -43 42 -9 41 -9 60 -17 13 -5 102 -25 190 -42 14 -3 36 -8 50 -11
26 -6 63 -12 115 -19 32 -4 90 -13 140 -21 30 -4 100 -13 165 -19 271 -28 640
-24 855 9 22 4 56 9 75 11 83 11 128 19 235 46 119 30 278 83 300 101 5 4 15
8 22 8 14 0 171 90 223 129 41 31 117 98 139 125 9 10 25 27 35 37 11 11 17
19 13 19 -4 0 2 9 12 19 29 29 98 179 106 231 4 25 10 56 13 70 10 53 5 184
-12 265 -15 75 -92 252 -137 317 -12 18 -23 34 -24 36 -1 1 -31 -11 -67 -27
-91 -42 -221 -92 -226 -86 -3 3 -10 1 -16 -4 -6 -5 -27 -14 -47 -20 l-37 -12
18 -37 c10 -20 23 -55 30 -77 7 -22 15 -47 18 -55 17 -50 22 -145 9 -190 -10
-39 -78 -107 -114 -116 -13 -4 -23 -9 -23 -13 0 -8 -111 -48 -155 -56 -16 -2
-41 -8 -55 -11 -55 -13 -252 -18 -370 -10 -154 12 -215 18 -222 22 -5 3 -30 7
-56 9 -26 2 -67 8 -92 14 -25 5 -58 12 -75 15 -98 18 -241 50 -360 81 -55 15
-107 28 -115 30 -38 8 -112 29 -185 52 -44 13 -88 26 -98 28 -10 2 -64 19
-120 37 -56 17 -104 32 -107 33 -11 2 -236 77 -255 85 -11 5 -33 13 -50 18
-16 6 -68 25 -115 42 -47 17 -89 33 -95 34 -13 4 -46 16 -70 26 -11 5 -47 20
-80 33 -33 13 -69 28 -80 32 -11 5 -23 7 -27 7 -5 -1 -8 2 -8 8 0 5 -6 10 -13
10 -26 0 -406 177 -522 244 -11 6 -56 31 -100 55 -97 54 -256 154 -306 193
-20 15 -42 28 -48 28 -6 0 -11 3 -11 8 0 4 -16 18 -35 31 -36 24 -45 31 -129
104 -64 55 -206 199 -206 210 0 4 -11 18 -24 30 -28 27 -80 125 -99 187 -36
122 64 252 253 328 104 41 114 45 125 47 6 0 9 7 7 15 -3 18 -148 160 -162
160 -6 0 -10 4 -10 9 0 5 -26 28 -57 52 -32 24 -64 50 -71 57 -7 6 -16 13 -20
13 -33 6 -53 3 -90 -17z"/>
<path d="M599 5001 c-16 -16 -29 -38 -30 -48 0 -10 -2 -27 -4 -38 -5 -24 -8
-68 -6 -75 7 -21 24 -465 24 -625 0 -170 -13 -487 -28 -655 -3 -36 -8 -87 -10
-115 -2 -27 -4 -50 -5 -50 -1 0 -3 -20 -5 -45 -4 -48 -9 -93 -21 -180 -13 -96
-9 -183 10 -212 33 -50 135 -46 169 6 16 23 23 54 33 131 11 89 40 165 74 195
27 24 40 28 79 26 50 -3 124 -22 156 -39 11 -6 25 -12 30 -12 6 -1 21 -6 35
-12 14 -6 63 -27 110 -48 47 -20 94 -40 105 -45 95 -41 432 -152 504 -166 7
-1 34 -8 60 -14 58 -13 89 -20 121 -24 14 -2 41 -7 60 -10 87 -15 126 -18 290
-21 127 -2 212 2 310 16 129 17 185 26 185 29 0 1 11 3 25 5 73 11 385 116
400 136 3 3 19 11 35 16 27 10 28 11 10 19 -11 4 -25 13 -32 18 -34 30 -43 36
-43 31 0 -4 -17 7 -37 23 -21 16 -53 39 -72 50 -33 20 -35 20 -60 3 -79 -55
-277 -125 -411 -147 -192 -30 -492 -20 -654 22 -34 9 -72 18 -85 20 -13 3 -32
9 -43 15 -10 5 -18 8 -18 5 0 -15 -291 127 -326 159 -6 6 -26 21 -45 35 -248
184 -420 448 -567 870 -3 8 -6 20 -7 25 -2 6 -12 42 -23 80 -18 63 -31 114
-38 154 -1 7 -7 34 -13 60 -6 25 -20 100 -32 166 -11 66 -22 125 -23 130 -20
75 -46 130 -75 152 -30 23 -80 16 -112 -16z"/>
<path d="M7675 2878 c-26 -45 -29 -48 -130 -152 -49 -51 -105 -101 -122 -111
-18 -11 -33 -23 -33 -27 0 -4 -7 -8 -15 -8 -8 0 -15 -4 -15 -10 0 -5 -6 -10
-14 -10 -7 0 -24 -8 -37 -18 -13 -10 -40 -24 -59 -32 -19 -7 -70 -29 -112 -49
-64 -29 -77 -39 -73 -56 4 -19 10 -68 21 -180 3 -27 7 -66 10 -85 2 -19 7 -66
10 -105 7 -68 11 -100 14 -100 1 0 3 -16 5 -35 5 -64 16 -164 21 -205 3 -22 7
-58 9 -80 2 -22 6 -56 9 -75 7 -43 14 -97 22 -175 3 -33 8 -63 10 -66 2 -4 6
-30 10 -60 4 -29 15 -81 25 -116 9 -35 15 -63 13 -63 -3 0 2 -10 10 -22 9 -12
16 -29 16 -38 0 -13 64 -145 111 -230 77 -138 215 -305 339 -410 36 -30 67
-57 70 -60 5 -6 95 -64 135 -87 19 -12 65 -35 75 -38 3 -1 27 -11 53 -23 27
-12 54 -22 61 -22 7 0 16 -3 20 -7 3 -4 12 -8 19 -9 7 -2 48 -12 92 -24 43
-11 97 -22 120 -25 22 -2 40 -5 40 -5 0 -8 307 -12 355 -6 14 2 48 7 75 10
123 17 253 68 315 123 96 85 134 266 79 380 -35 71 -91 100 -197 101 -116 0
-172 -35 -200 -128 -9 -30 -3 -142 9 -156 6 -8 8 -14 4 -14 -4 0 -1 -10 7 -22
20 -30 29 -70 20 -85 -17 -27 -157 -38 -242 -18 -143 32 -248 136 -329 325 -8
20 -42 130 -46 150 -1 6 -17 80 -22 100 -1 8 -5 31 -7 50 -2 19 -7 55 -10 80
-7 50 -15 121 -21 190 -2 25 -6 63 -9 85 -3 22 -8 67 -11 100 -3 33 -8 74 -11
90 -6 34 -11 71 -19 130 -5 45 -15 110 -21 140 -2 11 -13 69 -24 129 -11 59
-29 146 -40 192 -11 46 -22 94 -24 106 -3 13 -14 55 -26 93 -11 39 -23 81 -26
94 -18 84 -122 346 -176 444 -21 38 -38 72 -38 74 0 10 -64 93 -72 93 -2 0
-12 -15 -23 -32z"/>
<path d="M4676 2471 c-2 -3 -4 -414 -4 -913 0 -1062 -3 -1104 -61 -1167 -30
-32 -112 -61 -181 -64 -22 -1 -40 -4 -40 -7 0 -3 -15 -5 -33 -6 -57 -1 -270
-14 -317 -19 -67 -7 -86 -12 -125 -31 -29 -14 -35 -21 -31 -38 3 -12 6 -25 6
-29 0 -4 21 -17 48 -29 l47 -21 1170 -2 c644 0 1188 3 1210 7 71 15 108 64 83
111 -18 36 -51 40 -403 53 -192 8 -195 8 -195 15 0 4 -10 7 -23 7 -33 0 -148
59 -176 90 -26 30 -43 67 -46 98 -1 12 -5 29 -8 38 -4 9 -2 16 3 16 6 0 6 9 0
25 -5 14 -6 25 -2 25 8 0 6 74 -2 97 -3 7 -2 13 2 13 6 0 8 78 2 105 -1 6 -1
12 0 15 6 15 4 67 -2 63 -5 -2 -4 7 2 21 6 16 6 26 0 26 -6 0 -6 9 0 25 6 16
6 25 0 25 -6 0 -6 9 0 25 5 13 5 27 1 29 -5 3 -5 24 -1 46 4 23 3 40 -2 40 -5
0 -5 7 1 17 5 10 5 26 1 39 -5 12 -6 24 -3 28 8 8 9 165 1 159 -5 -2 -4 6 1
19 5 13 5 33 0 46 -5 12 -5 22 -1 22 4 0 7 34 7 75 0 41 -4 75 -8 75 -4 0 -4
8 1 18 5 9 6 26 2 37 -4 11 -4 29 -1 40 7 18 7 45 1 70 -1 6 -1 12 0 15 6 15
4 67 -2 63 -5 -2 -4 7 2 21 6 16 6 26 0 26 -6 0 -6 9 0 25 6 16 6 25 0 25 -6
0 -6 9 0 25 5 13 6 27 1 29 -4 3 -5 26 -1 50 4 25 3 51 -1 57 -4 7 -3 23 1 35
6 14 5 26 0 29 -7 4 -7 13 0 24 12 24 -10 54 -41 57 -105 11 -128 13 -155 18
-17 3 -46 8 -65 11 -19 2 -47 7 -64 10 -16 3 -59 10 -95 16 -36 6 -72 13 -80
16 -8 3 -26 8 -40 10 -14 2 -32 6 -40 10 -8 3 -22 7 -30 8 -25 4 -121 31 -218
63 -50 16 -94 27 -96 23z"/>
</g>
</svg>
