<?xml version="1.0" encoding="utf-8"?>
<!-- Generator: Adobe Illustrator 22.1.0, SVG Export Plug-In . SVG Version: 6.00 Build 0)  -->
<svg version="1.1" id="Layer_1" xmlns="http://www.w3.org/2000/svg" xmlns:xlink="http://www.w3.org/1999/xlink" x="0px" y="0px"
	 viewBox="0 0 113 122" style="enable-background:new 0 0 113 122;" xml:space="preserve">
<g>
	<g>
		<path d="M23.5,47.1c6.2,3.1,10.6,6.1,13.1,9.2c2.6,3.1,3.8,6.9,3.8,11.3c0,0.7,0,1.4-0.1,2c2.2,1.3,4.6,2.6,7.3,3.8
			c2.3-3.6,3.5-7.7,3.5-12.3c0-4.9-1.6-9.2-4.8-13c-3.2-3.8-8.5-7.6-15.9-11.3c-6.3-3.1-10.4-5.6-12.3-7.3
			c-3.4-3.1-5.1-7.1-5.1-12.1c0-4.3,1.2-7.7,3.5-10.2C19,4.6,22.1,3.4,26,3.4c4,0,7.6,1.6,10.8,4.7c3.2,3.1,5.3,7,6.1,11.6
			c0.3,1.8,0.9,2.7,1.8,2.7c0.8,0,1.1-0.4,1.1-1.3l-0.1-1.9c-0.4-2.2-0.6-5.2-0.6-9c0-2.7,0.1-4.9,0.4-6.8c0.1-0.3,0.1-0.8,0.1-1.4
			c0-0.9-0.4-1.4-1.2-1.4c-0.7,0-1.1,0.4-1.3,1.2c-0.2,1.3-0.5,2.2-0.8,2.5c-0.3,0.3-0.8,0.5-1.7,0.5c-0.8,0-2-0.3-3.7-0.9
			C32.3,1.9,28.6,1,25.9,1c-6.4,0-11.8,2.1-16,6.4C5.7,11.6,3.6,17,3.6,23.5c0,5.1,1.5,9.4,4.4,12.8C10.9,39.8,16.1,43.4,23.5,47.1z
			"/>
		<path d="M34.3,80.9c-2.4,1.5-5.3,2.3-8.9,2.3c-11.2,0-17.9-7.1-19.9-21.2c-0.3-1.9-0.9-2.9-1.6-2.9c-0.9,0-1.4,0.6-1.4,1.8
			c0,0.8,0,1.4,0.1,1.9c0.2,3.6,0.2,5.8,0.2,6.6c0,4.1-0.3,8.5-0.9,13.3c-0.1,0.3-0.1,0.8-0.1,1.4c0,0.9,0.4,1.4,1.2,1.4
			c0.9,0,1.5-0.6,1.5-1.7c0.2-2.2,0.8-3.3,1.8-3.3c0.8,0,2,0.4,3.5,1.1c5.9,2.6,11,3.9,15.2,3.9c4.4,0,8.5-0.9,12.1-2.7
			C36.1,82.2,35.2,81.5,34.3,80.9z"/>
	</g>
	<g>
		<path d="M46.8,40.4c3.4,0.1,5.4,0.4,6.1,1.1c0.7,0.6,1,2.5,1,5.7v28.7c0.5,0.2,1.1,0.4,1.6,0.6c3.1,1,6.5,2.1,10,3v-1.6
			c6.2,0.2,10.7,1.3,13.4,3.4c0.1,0.1,0.2,0.2,0.4,0.3c0.1,0,0.2,0,0.4,0c0.2,0,0.5-0.1,0.7-0.1c0.3,0,0.6-0.1,0.8-0.1l0.1,0l0.1,0
			l0.7-0.2l0.6-0.2c0.7-0.3,1-0.6,1.1-0.7c0-0.1,0-0.3,0-0.6c-2.5-1.1-5.5-1.9-8.9-2.5c-0.8,0-1.2-0.2-1.2-0.5
			c0.1-0.2,0.5-0.3,1.2-0.4c7.5-0.6,13.5-2.7,17.9-6.3c4.4-3.6,6.6-8.1,6.6-13.6c0-5.6-2.1-10-6.4-13.3c-4.3-3.3-10.1-4.9-17.4-4.9
			c-1.3,0-3.5,0.1-6.6,0.3c-2.8,0.1-5,0.2-6.6,0.2l-15.7-0.4c-0.5-0.1-0.8-0.1-1.1-0.1c-1.3,0-1.9,0.4-1.9,1.2
			C43.9,40.1,44.8,40.4,46.8,40.4z M65.5,45.5c0-1.8,0.5-3.1,1.4-3.8c0.9-0.7,2.7-1.1,5.3-1.1c9.7,0,14.6,5.6,14.6,16.8
			c0,6.4-1.7,11-5,13.8c-3.3,2.8-8.8,4.2-16.3,4.1V45.5z"/>
		<path d="M74.7,118.2c-2.9-0.1-4.7-0.2-5.4-0.2c-2.5-0.4-3.8-1.4-3.8-2.9V93.5c-1.7-0.2-3.3-0.4-5-0.7c-2.1-0.4-4.3-1-6.6-1.8v21.2
			c0,2.7-0.2,4.2-0.5,4.6c-0.3,0.9-2.3,1.3-6,1.4c-2.3,0.1-3.4,0.4-3.4,0.9c0,0.7,0.9,1.1,2.6,1.1h4.6c0.9,0,2.7,0,5.4,0
			c2.8,0,4.8,0,6,0c6.1,0,9.5,0,10.2,0h1.4c1.3,0,2-0.4,2-1.1C76.3,118.5,75.7,118.2,74.7,118.2z"/>
		<path d="M108.4,113.6c-1.7,0-2.6,0.8-2.6,2.5c0,0.6,0.2,1.3,0.6,2.1c0.1,0.1,0.1,0.2,0.1,0.2c0,0.5-0.6,0.7-1.8,0.7
			c-3.8,0-6-3.2-6.6-9.7c-1-11.4-3.1-19.3-6.2-23.7c0-0.1-0.1-0.1-0.1-0.2c-1.2,2-2.8,3.4-4.2,4.3l-1.3,0.8l-0.1,0l-0.1,0l-1.3,0.6
			c-0.4,0.2-0.7,0.3-1,0.4c0,0,0,0.1,0,0.1c0.9,8.3,1.5,13.5,1.9,15.6c0.4,2,1.4,4.2,2.9,6.4c3.5,5.1,8.2,7.7,14.4,7.7
			c5.5,0,8.2-1.6,8.2-4.9C111.2,114.6,110.3,113.6,108.4,113.6z"/>
	</g>
	<g>
		<path d="M67.2,61.5c1.1,0.5,2.1,1,3.1,1.6c2.7,1.5,5.2,3.3,7.5,5.3c0.8,0.7,1.5,1.4,2.3,2.2c0.2-0.2,0.5-0.3,0.7-0.5
			c0.7-0.6,1.3-1.3,1.9-2.1c-1-0.7-2-1.4-3-2c-4.1-2.4-8.2-4.3-12.4-6.1V61.5z"/>
		<path d="M90,75.2l-0.7-1.1c-1.5,0.8-3.2,1.4-4.9,1.9c0.1,0.2,0.3,0.4,0.3,0.7l0.4,0.9c0.1,0.3,0.1,0.6,0.2,0.8
			c0.3,1.1,0.2,2-0.1,2.5c-0.3,0.5-1,1-1.9,1.4l-0.7,0.3l-0.9,0.2c-0.5,0.2-1.2,0.2-1.8,0.3c-2.6,0.2-5.4-0.1-8.2-0.6
			c-5.6-1-11.2-2.7-16.7-4.6c-5.5-1.9-10.9-4.2-15.8-7.2c-2.4-1.5-4.7-3.1-6.5-5c-0.4-0.5-0.9-0.9-1.2-1.4L31,63.7L30.6,63
			c-0.5-0.9-0.7-1.6-0.6-2.3c0.1-0.6,0.6-1.4,1.5-2.1l0.7-0.5l0.9-0.4c0.6-0.3,1.3-0.5,1.9-0.7c0,0,0.1,0,0.1,0
			c-1.1-1.3-2.6-2.6-4.4-3.9l-0.6,0.2l-1.3,0.6c-1.8,0.9-3.7,2.3-4.7,4.7c-1,2.4-0.8,4.9-0.2,6.9l0.5,1.5l0.6,1.3
			c0.4,0.9,1,1.6,1.5,2.5c2.1,3,4.6,5.5,7.3,7.6c2.7,2.1,5.5,4,8.4,5.7c2.9,1.6,6,3,9.1,4.3c3.1,1.2,6.3,2.2,9.6,2.8
			c3.3,0.6,6.7,1,10.1,1c3.4,0,6.9-0.3,10.5-1.3c0.9-0.3,1.8-0.5,2.7-0.9l1.3-0.6l1.3-0.8c1.8-1.1,3.6-2.9,4.4-5.3
			c0.7-2.5,0.3-4.8-0.5-6.6C90.4,76.1,90.2,75.6,90,75.2z"/>
	</g>
</g>
</svg>
